<?xml version="1.0" standalone="no"?>
<!DOCTYPE svg PUBLIC "-//W3C//DTD SVG 20010904//EN"
 "http://www.w3.org/TR/2001/REC-SVG-20010904/DTD/svg10.dtd">
<svg version="1.0" xmlns="http://www.w3.org/2000/svg"
 width="150.000000pt" height="150.000000pt" viewBox="0 0 150.000000 150.000000"
 preserveAspectRatio="xMidYMid meet">
<metadata>
Created by potrace 1.11, written by Peter Selinger 2001-2013
</metadata>
<g transform="translate(0.000000,150.000000) scale(0.100000,-0.100000)"
fill="#000000" stroke="none">
<path d="M397 1415 c-76 -76 -88 -84 -109 -76 -13 5 -36 7 -51 4 -25 -5 -76
-46 -78 -64 -5 -33 -4 -57 2 -74 5 -16 -10 -36 -77 -103 -46 -45 -84 -89 -84
-97 0 -34 43 -11 115 62 l77 77 64 1 64 0 82 -82 c71 -71 82 -88 80 -112 -3
-22 6 -40 35 -71 37 -42 37 -43 38 -128 1 -85 1 -85 -38 -130 -30 -35 -38 -52
-35 -73 4 -24 -8 -40 -83 -115 -81 -81 -89 -86 -121 -81 -18 3 -42 2 -53 -3
-17 -7 -35 7 -107 77 -59 59 -91 84 -102 80 -25 -10 -9 -35 75 -120 72 -74 76
-80 69 -111 -16 -72 44 -134 119 -121 36 6 40 3 118 -74 45 -45 88 -81 97 -81
34 0 13 39 -62 113 l-78 78 2 65 2 64 81 80 c68 67 86 80 114 80 25 0 42 9 67
35 l34 35 94 0 c94 0 95 0 133 -35 28 -25 48 -35 72 -35 27 0 45 -13 112 -80
l80 -80 1 -65 1 -64 -79 -78 c-79 -79 -91 -99 -62 -110 11 -4 40 19 95 73 l79
79 55 0 c45 0 59 4 81 26 27 28 39 81 23 110 -6 12 13 36 77 100 46 46 84 92
84 101 0 37 -38 16 -119 -66 -64 -64 -88 -83 -100 -76 -9 4 -34 6 -55 4 -38
-5 -43 -2 -123 78 -73 73 -83 87 -83 118 0 28 -8 44 -35 70 l-35 34 0 95 0 95
37 38 c27 28 36 45 35 70 -1 29 10 44 80 112 l81 80 63 1 63 2 82 -83 c77 -77
109 -94 109 -57 0 7 -37 52 -82 99 -46 47 -81 91 -80 97 22 75 -17 137 -88
142 -14 1 -32 -2 -41 -6 -13 -6 -37 12 -100 76 -85 86 -105 98 -116 69 -4 -11
19 -40 73 -95 l79 -79 0 -65 1 -64 -83 -83 c-71 -71 -87 -82 -112 -80 -22 3
-40 -6 -72 -35 -41 -38 -42 -38 -128 -38 l-86 -1 -43 39 c-34 31 -50 38 -72
35 -25 -4 -40 7 -112 79 l-82 83 -1 62 -1 63 73 73 c85 86 100 107 77 116 -9
3 -17 6 -19 6 -2 0 -41 -38 -88 -85z"/>
</g>
</svg>
